<svg xmlns="http://www.w3.org/2000/svg" width="500" height="500" viewBox="0 0 500 500">
<g>
<path d="M 328.00 378.21 C322.77,381.70 313.50,384.19 311.87,382.54 C311.52,382.19 288.57,381.79 260.87,381.64 L 210.50 381.38 L 203.84 378.89 C199.74,377.35 194.95,374.49 191.38,371.45 L 185.58 366.50 L 192.04 365.87 C195.59,365.52 225.22,365.18 257.88,365.12 C316.33,365.00 317.32,364.97 320.66,362.90 C321.81,362.19 322.75,361.66 323.53,360.94 C327.12,357.60 327.00,350.25 327.00,301.83 C327.00,255.20 327.18,248.81 328.44,250.61 C329.23,251.74 330.17,253.98 330.54,255.58 C330.90,257.19 332.03,260.82 333.05,263.65 C335.46,270.36 337.46,295.27 335.83,298.31 C335.00,299.88 335.01,302.35 335.87,307.96 C337.39,317.80 336.97,339.18 335.25,339.75 C333.68,340.27 333.60,345.70 335.15,346.22 C336.41,346.64 336.77,361.40 335.64,366.25 C335.29,367.76 334.79,370.18 334.54,371.62 C334.29,373.07 333.96,374.31 333.79,374.39 C333.63,374.47 331.02,376.19 328.00,378.21 ZM 239.24 231.88 L 242.50 233.97 L 217.89 234.00 L 218.20 203.75 C218.48,175.21 218.62,173.24 220.66,168.82 C223.89,161.85 230.10,155.69 237.25,152.39 C242.75,149.85 244.64,149.50 253.00,149.50 C261.33,149.50 263.19,149.84 268.07,152.23 C280.54,158.36 291.21,175.40 279.43,170.37 C277.27,169.45 271.23,168.35 266.00,167.94 L 256.50 167.18 L 250.86 170.59 C247.76,172.47 244.43,175.24 243.45,176.75 C242.48,178.26 241.13,179.83 240.45,180.24 C239.78,180.64 238.91,182.22 238.53,183.74 C238.15,185.26 237.09,187.33 236.17,188.35 C234.75,189.93 234.50,192.73 234.50,207.35 C234.50,216.78 234.83,225.69 235.24,227.15 C235.65,228.60 237.45,230.73 239.24,231.88 ZM 267.01 320.25 C267.00,321.84 265.59,322.00 251.50,322.00 C238.24,322.00 236.00,321.78 236.00,320.47 C236.00,319.21 239.12,310.21 242.90,300.54 C243.46,299.10 242.76,297.39 240.23,294.08 C237.00,289.84 236.82,289.20 237.20,283.26 C237.56,277.56 237.96,276.57 241.25,273.28 C244.47,270.07 245.59,269.59 250.70,269.28 C255.37,268.99 257.26,269.36 260.40,271.21 C269.59,276.62 270.63,289.43 262.39,295.91 L 259.73 298.00 L 263.38 308.25 C265.38,313.89 267.01,319.29 267.01,320.25 ZM 312.24 232.21 C314.28,233.97 314.24,234.00 310.15,234.00 L 306.00 234.00 L 306.16 205.75 C306.25,190.21 306.51,179.07 306.74,181.00 C306.97,182.92 307.53,184.94 307.98,185.50 C308.44,186.05 309.12,196.38 309.49,208.46 C310.14,228.94 310.32,230.55 312.24,232.21 ZM 181.23 96.70 C179.72,98.08 177.72,98.83 175.91,98.70 C174.31,98.59 173.00,98.39 173.00,98.26 C173.00,98.13 177.16,96.06 182.25,93.66 C191.44,89.32 203.64,84.99 211.94,83.13 C215.96,82.22 216.16,82.27 214.64,83.79 C213.74,84.69 209.74,86.43 205.75,87.65 C201.76,88.87 196.02,90.76 193.00,91.85 C189.98,92.94 186.63,93.98 185.57,94.16 C184.52,94.35 182.56,95.49 181.23,96.70 ZM 249.76 79.25 C249.33,80.54 243.47,81.30 241.24,80.36 C238.76,79.31 241.21,78.00 245.64,78.00 C248.81,78.00 250.04,78.37 249.76,79.25 ZM 164.81 104.50 C163.62,105.88 161.93,106.99 161.07,106.97 C159.96,106.95 160.33,106.21 162.31,104.47 C165.95,101.26 167.61,101.28 164.81,104.50 ZM 153.00 113.00 C152.41,114.10 151.25,115.00 150.43,115.00 C149.24,115.00 149.15,114.59 150.00,113.00 C150.59,111.90 151.75,111.00 152.57,111.00 C153.76,111.00 153.85,111.41 153.00,113.00 ZM 261.00 79.00 C259.28,80.11 258.47,80.11 255.00,79.00 C253.01,78.36 253.51,78.18 257.50,78.11 C261.07,78.05 262.07,78.31 261.00,79.00 ZM 339.73 417.33 C339.52,417.97 338.32,418.65 337.06,418.83 C334.29,419.24 335.11,417.47 338.04,416.70 C339.36,416.35 339.97,416.58 339.73,417.33 Z" fill="rgba(0,0,1,1)"/>
<path d="M 243.33 481.77 C240.12,478.89 231.57,470.99 224.32,464.21 L 211.14 451.89 L 203.32 450.01 C184.91,445.60 167.52,438.51 147.88,427.38 L 137.50 421.50 L 86.18 420.50 L 82.34 417.41 C82.16,417.26 81.97,417.10 81.78,416.93 C83.50,418.44 85.45,419.63 87.24,420.15 C88.48,420.51 99.85,420.83 112.50,420.87 L 135.50 420.93 L 131.50 417.72 C129.30,415.96 125.21,412.37 122.40,409.76 L 117.31 405.00 L 91.00 405.00 L 91.00 378.90 L 84.41 369.70 C80.78,364.64 77.41,360.35 76.91,360.17 C76.37,359.97 76.08,367.96 76.02,377.64 C76.04,367.98 76.31,360.00 76.88,360.00 C77.37,360.00 74.00,352.46 69.40,343.25 C64.80,334.04 58.40,319.52 55.18,310.99 L 49.33 295.47 L 37.42 283.99 C30.88,277.67 21.34,268.46 16.22,263.53 C6.88,254.51 5.29,251.96 6.37,247.68 C6.69,246.40 16.39,236.48 27.96,225.58 C46.24,208.38 49.11,205.27 50.04,201.65 C56.12,177.97 62.86,160.88 73.37,142.52 C76.33,137.36 77.60,134.20 76.97,133.57 C76.96,133.56 76.95,133.54 76.93,133.52 C77.46,133.62 78.53,132.76 79.50,131.42 C80.60,129.90 83.64,125.83 86.25,122.36 L 91.00 116.07 L 91.00 102.14 C91.00,90.36 91.24,88.12 92.58,87.61 C93.45,87.27 99.61,87.00 106.27,87.00 L 118.37 87.00 L 123.17 82.95 C125.82,80.72 130.34,77.35 133.22,75.45 L 138.45 72.00 L 137.79 72.00 L 154.15 63.71 C170.14,55.61 186.79,49.30 204.17,44.75 L 212.85 42.48 L 230.89 25.24 C242.77,13.90 249.68,8.00 251.09,8.00 C253.20,8.00 258.25,12.47 279.02,32.72 L 288.54 42.00 L 302.07 45.41 C320.31,50.00 332.63,54.69 350.50,63.81 L 365.50 71.48 L 392.17 71.99 L 418.84 72.50 L 418.84 72.50 L 421.52 75.00 C425.89,79.09 426.73,80.42 427.12,97.79 C426.69,80.57 425.91,79.10 421.52,75.00 L 418.84 72.50 L 392.71 72.20 L 366.57 71.90 L 373.04 76.87 C376.59,79.60 380.81,83.00 382.41,84.42 C385.14,86.85 385.93,87.00 396.03,87.00 C401.93,87.00 408.16,87.28 409.88,87.62 L 413.00 88.25 L 413.00 117.28 L 417.31 122.39 C419.67,125.20 422.63,128.97 423.88,130.76 C425.13,132.56 426.52,133.80 426.96,133.52 C427.29,133.32 427.47,126.78 427.43,117.68 L 427.71 137.72 L 430.97 142.46 C438.65,153.62 447.63,175.77 452.93,196.61 L 455.50 206.73 L 473.00 222.95 C496.64,244.86 498.00,246.32 498.00,249.87 C498.00,252.41 494.98,255.67 476.12,273.52 L 454.24 294.23 L 452.03 301.87 C448.43,314.28 441.26,331.63 434.20,345.00 L 427.59 357.50 L 427.05 384.18 C426.95,388.75 426.87,392.63 426.78,395.93 C426.82,392.21 426.82,387.94 426.77,383.32 C426.51,361.34 426.44,360.61 424.82,363.50 C423.89,365.15 420.63,369.62 417.57,373.43 L 412.00 380.36 L 412.00 392.68 C412.00,401.86 411.68,405.00 410.75,405.02 C410.06,405.03 404.10,405.31 397.50,405.66 L 385.50 406.27 L 380.00 410.94 C376.98,413.51 373.24,416.56 371.71,417.73 C368.93,419.85 368.93,419.85 371.21,420.29 C372.09,420.46 373.95,420.59 376.41,420.68 L 367.15 420.72 L 359.32 425.31 C340.47,436.35 316.03,446.24 296.80,450.61 L 289.56 452.26 L 275.03 465.99 C255.59,484.36 252.53,487.00 250.71,487.00 C249.86,487.00 246.54,484.65 243.33,481.77 ZM 231.50 435.32 C238.28,436.18 267.14,435.93 275.03,434.95 C326.94,428.50 378.06,398.08 408.52,355.50 C416.66,344.12 427.74,322.62 432.48,309.00 C440.54,285.82 444.27,256.78 442.09,234.13 C439.52,207.48 433.68,187.19 422.10,164.70 C410.34,141.87 401.93,130.22 385.32,113.79 C373.25,101.85 366.72,96.51 353.50,87.75 C330.44,72.47 300.51,61.14 275.03,58.03 C264.00,56.69 240.26,56.71 230.32,58.07 C202.37,61.91 171.62,73.10 149.50,87.50 C104.42,116.84 74.77,162.28 65.34,216.50 C63.16,229.07 62.87,264.66 64.86,276.00 C79.86,361.47 145.81,424.52 231.50,435.32 ZM 181.23 96.70 C182.56,95.49 184.52,94.35 185.57,94.16 C186.63,93.98 189.98,92.94 193.00,91.85 C196.02,90.76 201.76,88.87 205.75,87.65 C209.74,86.43 213.74,84.69 214.64,83.79 C216.16,82.27 215.96,82.22 211.94,83.13 C210.85,83.37 209.69,83.66 208.48,83.98 C215.26,81.92 221.48,80.20 225.08,79.50 C229.71,78.60 239.80,77.62 247.50,77.32 C289.00,75.72 329.81,90.75 363.98,120.23 C394.57,146.63 416.25,187.15 422.09,228.84 C423.91,241.83 422.72,266.87 419.59,281.68 C412.52,315.11 397.81,341.54 372.10,367.01 C348.25,390.64 319.96,405.68 285.50,413.04 C277.63,414.72 271.24,415.24 255.50,415.49 C232.90,415.84 232.73,415.83 217.00,412.34 C186.94,405.67 161.48,392.70 139.32,372.76 C110.50,346.83 92.41,314.34 85.29,275.71 C83.17,264.24 82.92,232.16 84.86,221.00 C93.61,170.53 121.03,128.97 162.54,103.23 C166.92,100.51 171.62,97.94 172.98,97.51 C174.35,97.07 176.60,95.89 177.98,94.87 C179.54,93.72 187.47,90.79 196.58,87.76 C191.62,89.55 186.60,91.60 182.25,93.66 C177.16,96.06 173.00,98.13 173.00,98.26 C173.00,98.39 174.31,98.59 175.91,98.70 C177.72,98.83 179.72,98.08 181.23,96.70 ZM 328.00 378.21 C331.02,376.19 333.63,374.47 333.79,374.39 C333.96,374.31 334.29,373.07 334.54,371.62 C334.79,370.18 335.29,367.76 335.64,366.25 C336.77,361.40 336.41,346.64 335.15,346.22 C333.60,345.70 333.68,340.27 335.25,339.75 C336.97,339.18 337.39,317.80 335.87,307.96 C335.01,302.35 335.00,299.88 335.83,298.31 C337.46,295.27 335.46,270.36 333.05,263.65 C332.03,260.82 330.90,257.19 330.54,255.58 C330.17,253.98 329.23,251.74 328.44,250.61 C327.18,248.81 327.00,255.20 327.00,301.83 C327.00,350.25 327.12,357.60 323.53,360.94 C322.75,361.66 321.81,362.19 320.66,362.90 C320.22,363.17 319.82,363.41 319.33,363.62 C319.74,363.41 320.04,363.18 320.39,362.91 C321.29,362.20 322.04,361.64 322.68,360.97 C326.10,357.35 326.00,350.40 326.00,298.57 L 326.00 242.03 L 323.08 238.77 C320.41,235.77 319.57,235.46 312.83,235.00 L 305.50 234.50 L 305.23 205.00 C305.02,182.84 304.58,174.01 303.45,169.50 C299.67,154.39 290.22,142.68 276.20,135.73 L 267.65 131.50 L 238.50 131.50 L 230.66 135.24 C215.19,142.63 202.51,158.86 199.98,174.50 C199.45,177.80 199.01,192.76 199.01,207.75 L 199.00 235.00 L 192.46 235.00 C186.23,235.00 185.72,235.19 181.71,238.93 L 177.50 242.86 L 177.19 294.68 C177.03,323.18 177.17,348.87 177.52,351.76 C178.26,357.94 181.58,362.53 186.33,363.90 C188.09,364.41 218.02,364.86 253.62,364.91 C291.27,364.96 306.82,364.98 313.79,364.55 C307.10,365.01 292.67,365.05 257.88,365.12 C225.22,365.18 195.59,365.52 192.04,365.87 L 185.58 366.50 L 191.38 371.45 C194.95,374.49 199.74,377.35 203.84,378.89 L 210.50 381.38 L 260.87 381.64 C288.57,381.79 311.52,382.19 311.87,382.54 C313.50,384.19 322.77,381.70 328.00,378.21 ZM 239.24 231.88 C237.45,230.73 235.65,228.60 235.24,227.15 C234.83,225.69 234.50,216.78 234.50,207.35 C234.50,192.73 234.75,189.93 236.17,188.35 C237.09,187.33 238.15,185.26 238.53,183.74 C238.91,182.22 239.78,180.64 240.45,180.24 C241.13,179.83 242.48,178.26 243.45,176.75 C244.43,175.24 247.76,172.47 250.86,170.59 L 256.50 167.18 L 266.00 167.94 C271.23,168.35 277.27,169.45 279.43,170.37 C284.01,172.33 285.20,170.94 284.20,168.15 L 286.50 172.50 L 286.80 203.09 L 287.11 233.69 L 274.90 234.34 C258.99,235.20 218.53,235.19 217.67,234.33 C217.30,233.97 217.00,221.70 217.01,207.08 C217.01,183.88 217.26,179.71 218.91,174.28 C219.01,173.95 219.11,173.63 219.21,173.31 C218.52,177.27 218.39,184.41 218.20,203.75 L 217.89 234.00 L 242.50 233.97 ZM 363.07 223.00 L 358.00 223.00 L 358.00 243.00 L 363.50 243.00 C367.67,243.00 369.48,242.52 371.00,241.00 C373.39,238.61 373.58,235.72 371.46,233.96 C370.39,233.08 370.23,232.37 370.96,231.64 C372.73,229.87 372.17,225.16 370.07,224.04 C369.00,223.47 365.85,223.00 363.07,223.00 ZM 377.07 240.37 C378.67,242.40 380.03,243.00 383.02,243.00 C387.65,243.00 390.00,240.34 390.00,235.11 C390.00,230.48 387.58,228.00 383.10,228.02 C378.94,228.03 377.74,228.67 376.15,231.68 C374.47,234.88 374.73,237.39 377.07,240.37 ZM 118.00 241.00 C120.98,243.98 126.33,243.67 128.93,240.37 C131.40,237.23 131.53,234.92 129.47,230.95 C128.16,228.40 127.38,228.00 123.80,228.00 C121.35,228.00 118.91,228.68 117.83,229.65 C115.29,231.95 115.39,238.39 118.00,241.00 ZM 148.00 222.00 L 148.00 243.00 L 150.50 243.00 C152.48,243.00 153.00,242.50 153.00,240.56 C153.00,236.87 154.65,236.61 156.65,239.98 C157.97,242.22 159.17,243.00 161.30,243.00 L 164.17 243.00 L 161.08 239.11 C159.39,236.96 158.00,234.85 158.00,234.41 C158.00,233.97 159.21,232.35 160.69,230.80 L 163.37 228.00 L 160.99 228.00 C159.68,228.00 157.35,229.21 155.80,230.69 L 153.00 233.37 L 153.00 227.69 C153.00,222.29 152.87,222.00 150.50,222.00 L 148.00 222.00 ZM 312.24 232.21 C310.32,230.55 310.14,228.94 309.49,208.46 C309.12,196.38 308.44,186.05 307.98,185.50 C307.53,184.94 306.97,182.92 306.74,181.00 C306.51,179.07 306.25,190.21 306.16,205.75 L 306.00 234.00 L 310.15 234.00 C314.24,234.00 314.28,233.97 312.24,232.21 ZM 100.46 251.93 C101.47,253.57 154.19,252.94 154.74,251.28 C155.05,250.35 148.86,250.00 128.32,249.78 C113.57,249.63 101.11,249.80 100.64,250.16 C100.16,250.53 100.08,251.32 100.46,251.93 ZM 392.00 242.40 C392.00,243.94 396.37,242.76 397.96,240.80 L 399.74 238.61 L 401.11 240.80 C401.86,242.01 403.50,243.00 404.74,243.00 C407.54,243.00 407.55,242.58 404.82,238.74 L 402.63 235.67 L 406.83 228.00 L 404.54 228.00 C403.28,228.00 401.58,229.00 400.77,230.22 L 399.30 232.43 L 398.12 230.22 C397.38,228.84 395.99,228.00 394.43,228.00 L 391.94 228.00 L 394.15 231.84 L 396.36 235.68 L 394.18 238.75 C392.98,240.43 392.00,242.08 392.00,242.40 ZM 101.00 233.00 L 101.00 243.00 L 107.50 243.00 C112.49,243.00 114.00,242.67 114.00,241.56 C114.00,240.62 112.70,240.01 110.25,239.81 L 106.50 239.50 L 106.21 231.25 C105.93,223.23 105.85,223.00 103.46,223.00 C101.01,223.00 101.00,223.04 101.00,233.00 ZM 357.00 251.52 C357.00,252.84 360.16,253.00 381.67,252.77 C400.32,252.57 406.44,252.20 406.75,251.25 C407.08,250.27 401.71,250.00 382.08,250.00 C360.33,250.00 357.00,250.20 357.00,251.52 ZM 135.00 241.00 C136.33,242.33 138.33,243.00 141.00,243.00 C144.35,243.00 145.00,242.67 145.00,240.98 C145.00,239.40 144.52,239.08 142.75,239.49 C139.35,240.29 137.81,238.74 138.18,234.90 C138.46,231.88 138.86,231.47 141.75,231.19 C146.98,230.68 145.97,228.00 140.56,228.00 C137.10,228.00 135.77,228.49 134.56,230.22 C132.37,233.34 132.59,238.59 135.00,241.00 ZM 385.29 237.90 C383.93,240.06 381.13,240.49 380.42,238.66 C379.21,235.49 380.43,231.51 382.71,231.19 C384.41,230.94 385.09,231.50 385.61,233.59 C385.99,235.09 385.84,237.03 385.29,237.90 ZM 125.50 235.50 C125.50,239.71 123.59,241.19 121.23,238.83 C118.60,236.20 120.37,230.54 123.62,231.17 C125.08,231.45 125.50,232.41 125.50,235.50 ZM 367.08 239.00 C366.58,239.00 365.54,239.24 364.78,239.53 C363.04,240.20 362.00,239.20 362.00,236.83 C362.00,235.46 362.76,235.00 365.00,235.00 C367.33,235.00 368.00,235.44 368.00,237.00 C368.00,238.10 367.59,239.00 367.08,239.00 ZM 249.76 79.25 C250.04,78.37 248.81,78.00 245.64,78.00 C241.21,78.00 238.76,79.31 241.24,80.36 C243.47,81.30 249.33,80.54 249.76,79.25 ZM 367.50 229.00 C367.50,229.89 366.39,230.63 364.75,230.82 C362.51,231.07 362.00,230.74 362.00,229.00 C362.00,227.26 362.51,226.93 364.75,227.18 C366.39,227.37 367.50,228.11 367.50,229.00 ZM 164.81 104.50 C167.61,101.28 165.95,101.26 162.31,104.47 C160.33,106.21 159.96,106.95 161.07,106.97 C161.93,106.99 163.62,105.88 164.81,104.50 ZM 153.00 113.00 C153.85,111.41 153.76,111.00 152.57,111.00 C151.75,111.00 150.59,111.90 150.00,113.00 C149.15,114.59 149.24,115.00 150.43,115.00 C151.25,115.00 152.41,114.10 153.00,113.00 ZM 261.00 79.00 C262.07,78.31 261.07,78.05 257.50,78.11 C253.51,78.18 253.01,78.36 255.00,79.00 C258.47,80.11 259.28,80.11 261.00,79.00 ZM 339.73 417.33 C339.97,416.58 339.36,416.35 338.04,416.70 C335.11,417.47 334.29,419.24 337.06,418.83 C338.32,418.65 339.52,417.97 339.73,417.33 ZM 425.13 412.26 C423.98,415.52 422.01,416.56 418.44,418.43 C416.60,419.40 415.16,419.92 411.37,420.21 C412.07,420.14 412.63,420.07 413.03,420.00 C418.86,418.89 423.13,416.13 425.13,412.26 ZM 234.11 154.05 C229.85,156.62 226.08,160.18 223.29,164.24 C225.95,159.97 229.42,156.74 234.11,154.05 ZM 280.14 161.86 C277.06,158.27 272.69,154.50 268.07,152.23 C272.81,154.56 276.90,157.84 280.14,161.86 Z" fill="rgba(39,50,66,1)"/>
<path d="M 231.50 435.32 C145.81,424.52 79.86,361.47 64.86,276.00 C62.87,264.66 63.16,229.07 65.34,216.50 C74.77,162.28 104.42,116.84 149.50,87.50 C171.62,73.10 202.37,61.91 230.32,58.07 C240.26,56.71 264.00,56.69 275.03,58.03 C300.51,61.14 330.44,72.47 353.50,87.75 C366.72,96.51 373.25,101.85 385.32,113.79 C401.93,130.22 410.34,141.87 422.10,164.70 C433.68,187.19 439.52,207.48 442.09,234.13 C444.27,256.78 440.54,285.82 432.48,309.00 C427.74,322.62 416.66,344.12 408.52,355.50 C378.06,398.08 326.94,428.50 275.03,434.95 C267.14,435.93 238.28,436.18 231.50,435.32 ZM 285.50 413.04 C319.96,405.68 348.25,390.64 372.10,367.01 C397.81,341.54 412.52,315.11 419.59,281.68 C422.72,266.87 423.91,241.83 422.09,228.84 C416.25,187.15 394.57,146.63 363.98,120.23 C329.81,90.75 289.00,75.72 247.50,77.32 C239.80,77.62 229.71,78.60 225.08,79.50 C214.54,81.56 181.36,92.38 177.98,94.87 C176.60,95.89 174.35,97.07 172.98,97.51 C171.62,97.94 166.92,100.51 162.54,103.23 C121.03,128.97 93.61,170.53 84.86,221.00 C82.92,232.16 83.17,264.24 85.29,275.71 C92.41,314.34 110.50,346.83 139.32,372.76 C161.48,392.70 186.94,405.67 217.00,412.34 C232.73,415.83 232.90,415.84 255.50,415.49 C271.24,415.24 277.63,414.72 285.50,413.04 ZM 267.01 320.25 C267.01,319.29 265.38,313.89 263.38,308.25 L 259.73 298.00 L 262.39 295.91 C270.63,289.43 269.59,276.62 260.40,271.21 C257.26,269.36 255.37,268.99 250.70,269.28 C248.42,269.42 246.93,269.59 245.70,270.02 C246.24,269.75 246.74,269.56 247.15,269.47 C248.72,269.12 250.03,268.54 250.06,268.17 C250.09,267.80 250.19,260.30 250.28,251.50 L 250.43 235.50 L 233.97 235.00 L 231.98 234.94 C245.44,235.08 264.96,234.88 274.90,234.34 L 287.08 233.69 L 287.10 236.00 L 295.49 236.00 C300.11,236.00 304.16,235.55 304.50,235.01 C304.83,234.46 305.07,220.79 305.03,204.62 C305.00,192.04 304.87,183.96 304.57,178.49 C304.92,184.13 305.11,192.42 305.23,205.00 L 305.50 234.50 L 312.83 235.00 C319.57,235.46 320.41,235.77 323.08,238.77 L 326.00 242.03 L 326.00 298.57 C326.00,350.40 326.10,357.35 322.68,360.97 C322.04,361.64 321.29,362.20 320.39,362.91 C317.75,364.98 317.19,365.00 253.62,364.91 C220.31,364.86 191.96,364.47 187.01,364.00 L 217.96 364.00 C244.25,364.00 250.95,363.74 250.31,362.75 C249.86,362.06 249.50,352.73 249.50,342.00 L 249.50 322.50 L 242.75 322.20 C238.47,322.02 236.65,321.70 236.15,320.95 C236.83,321.84 240.08,322.00 251.50,322.00 C265.59,322.00 267.00,321.84 267.01,320.25 ZM 371.21 420.29 C368.93,419.85 368.93,419.85 371.71,417.73 C373.24,416.56 376.98,413.51 380.00,410.94 L 385.50 406.27 L 397.50 405.66 C404.10,405.31 410.06,405.03 410.75,405.02 C411.68,405.00 412.00,401.86 412.00,392.68 L 412.00 380.36 L 417.57 373.43 C420.63,369.62 423.89,365.15 424.82,363.50 C426.44,360.61 426.51,361.34 426.77,383.32 C426.93,397.03 426.62,407.70 425.99,410.05 C424.63,415.07 419.93,418.69 413.03,420.00 C407.92,420.96 375.90,421.19 371.21,420.29 ZM 87.24 420.15 C86.39,419.90 85.50,419.50 84.61,418.99 C86.49,419.93 88.62,419.97 94.48,419.92 C99.44,419.88 102.93,419.61 102.24,419.34 C101.55,419.06 101.24,418.42 101.55,417.91 C101.86,417.41 101.42,417.00 100.56,417.00 C99.70,417.00 99.00,416.55 99.00,416.00 C99.00,415.45 98.10,415.00 97.00,415.00 C95.90,415.00 95.00,414.51 95.00,413.92 C95.00,413.24 96.11,413.08 97.97,413.49 C100.30,414.00 101.88,413.49 105.40,411.07 C110.38,407.64 116.12,406.98 118.69,409.55 C120.91,411.77 121.67,410.40 119.53,408.03 C117.94,406.28 116.22,406.02 104.26,405.78 L 90.78 405.50 L 90.94 392.27 L 91.00 387.09 L 91.00 405.00 L 117.31 405.00 L 122.40 409.76 C125.21,412.37 129.30,415.96 131.50,417.72 L 135.50 420.93 L 112.50 420.87 C99.85,420.83 88.48,420.51 87.24,420.15 ZM 224.60 162.31 C222.19,165.56 220.37,169.46 218.91,174.28 C218.64,175.15 218.41,175.99 218.22,176.88 C218.92,172.79 220.02,169.91 221.70,166.64 C222.43,165.21 223.42,163.74 224.60,162.31 ZM 181.50 360.70 L 183.19 362.39 C181.99,361.55 180.94,360.44 180.07,359.13 C180.47,359.63 180.95,360.15 181.50,360.70 ZM 177.54 351.95 C177.53,351.88 177.53,351.82 177.52,351.76 C177.17,348.87 177.03,323.18 177.19,294.68 C177.03,323.18 177.18,348.95 177.54,351.95 ZM 217.49 233.14 C217.54,233.86 217.60,234.27 217.67,234.33 C217.74,234.41 218.11,234.48 218.75,234.54 L 217.50 234.50 L 217.49 233.14 ZM 251.51 149.50 C244.43,149.55 242.42,150.00 237.50,152.30 C236.49,152.78 235.52,153.27 234.60,153.78 C235.48,153.26 236.37,152.79 237.25,152.39 C242.41,150.00 244.39,149.55 251.51,149.50 ZM 76.08 390.50 C75.88,376.32 76.14,359.88 76.91,360.17 C76.15,359.89 75.89,376.32 76.08,390.50 ZM 241.85 272.70 C241.66,272.88 241.46,273.08 241.25,273.28 C240.54,273.99 239.97,274.59 239.51,275.15 C239.91,274.66 240.38,274.14 240.95,273.55 C241.23,273.26 241.53,272.98 241.85,272.70 ZM 239.56 309.37 C237.46,315.12 236.02,319.54 236.00,320.45 C236.00,320.44 236.00,320.43 236.00,320.42 C236.00,319.59 237.45,315.14 239.56,309.37 ZM 77.31 411.02 C77.21,410.76 77.12,410.50 77.05,410.24 C77.05,410.24 77.05,410.23 77.05,410.22 C77.12,410.48 77.21,410.75 77.31,411.02 Z" fill="rgba(77,190,184,1)"/>
<path d="M 81.76 416.96 C79.52,415.10 77.67,412.46 77.04,410.21 C75.76,405.60 75.64,359.70 76.91,360.17 C77.41,360.35 80.80,364.67 84.46,369.77 L 91.10 379.04 L 90.94 392.27 L 90.78 405.50 L 104.26 405.78 C116.22,406.02 117.94,406.28 119.53,408.03 C121.67,410.40 120.91,411.77 118.69,409.55 C116.12,406.98 110.38,407.64 105.40,411.07 C101.88,413.49 100.30,414.00 97.97,413.49 C96.11,413.08 95.00,413.24 95.00,413.92 C95.00,414.51 95.90,415.00 97.00,415.00 C98.10,415.00 99.00,415.45 99.00,416.00 C99.00,416.55 99.70,417.00 100.56,417.00 C101.42,417.00 101.86,417.41 101.55,417.91 C101.24,418.42 101.55,419.06 102.24,419.34 C102.93,419.61 99.44,419.88 94.48,419.92 C85.85,420.00 85.30,419.87 81.76,416.96 ZM 181.50 360.70 C178.86,358.06 178.06,356.30 177.54,351.95 C177.18,348.95 177.03,323.18 177.19,294.68 L 177.50 242.86 L 181.71 238.93 C185.72,235.19 186.23,235.00 192.46,235.00 L 199.00 235.00 L 199.01 207.75 C199.01,192.76 199.45,177.80 199.98,174.50 C202.51,158.86 215.19,142.63 230.66,135.24 L 238.50 131.50 L 253.08 131.50 L 267.65 131.50 L 276.20 135.73 C290.15,142.65 299.57,154.27 303.45,169.37 C304.61,173.90 304.97,181.92 305.03,204.62 C305.07,220.79 304.83,234.46 304.50,235.01 C304.16,235.55 300.11,236.00 295.49,236.00 L 287.10 236.00 L 286.80 204.25 L 286.50 172.50 L 283.85 167.50 C280.33,160.86 274.86,155.57 268.07,152.23 C263.19,149.84 261.33,149.50 253.00,149.50 C244.64,149.50 242.75,149.85 237.25,152.39 C230.94,155.30 224.48,161.21 221.70,166.64 C217.54,174.74 216.91,180.49 217.21,208.00 L 217.50 234.50 L 233.97 235.00 L 250.43 235.50 L 250.28 251.50 C250.19,260.30 250.09,267.80 250.06,268.17 C250.03,268.54 248.72,269.12 247.15,269.47 C245.58,269.81 242.79,271.65 240.95,273.55 C238.01,276.59 237.54,277.79 237.19,283.30 C236.82,289.20 237.00,289.85 240.23,294.08 C242.76,297.39 243.46,299.10 242.90,300.54 C239.15,310.11 236.00,319.20 236.00,320.42 C236.00,321.56 237.58,321.98 242.75,322.20 L 249.50 322.50 L 249.50 342.00 C249.50,352.73 249.86,362.06 250.31,362.75 C250.95,363.74 244.25,364.00 217.96,364.00 L 184.80 364.00 L 181.50 360.70 ZM 100.46 251.93 C100.08,251.32 100.16,250.53 100.64,250.16 C101.11,249.80 113.57,249.63 128.32,249.78 C148.86,250.00 155.05,250.35 154.74,251.28 C154.19,252.94 101.47,253.57 100.46,251.93 ZM 357.00 251.52 C357.00,250.20 360.33,250.00 382.08,250.00 C401.71,250.00 407.08,250.27 406.75,251.25 C406.44,252.20 400.32,252.57 381.67,252.77 C360.16,253.00 357.00,252.84 357.00,251.52 ZM 101.00 233.00 C101.00,223.04 101.01,223.00 103.46,223.00 C105.85,223.00 105.93,223.23 106.21,231.25 L 106.50 239.50 L 110.25 239.81 C112.70,240.01 114.00,240.62 114.00,241.56 C114.00,242.67 112.49,243.00 107.50,243.00 L 101.00 243.00 L 101.00 233.00 ZM 118.00 241.00 C115.39,238.39 115.29,231.95 117.83,229.65 C118.91,228.68 121.35,228.00 123.80,228.00 C127.38,228.00 128.16,228.40 129.47,230.95 C131.53,234.92 131.40,237.23 128.93,240.37 C126.33,243.67 120.98,243.98 118.00,241.00 ZM 125.50 235.50 C125.50,232.41 125.08,231.45 123.62,231.17 C120.37,230.54 118.60,236.20 121.23,238.83 C123.59,241.19 125.50,239.71 125.50,235.50 ZM 135.00 241.00 C132.59,238.59 132.37,233.34 134.56,230.22 C135.77,228.49 137.10,228.00 140.56,228.00 C145.97,228.00 146.98,230.68 141.75,231.19 C138.86,231.47 138.46,231.88 138.18,234.90 C137.81,238.74 139.35,240.29 142.75,239.49 C144.52,239.08 145.00,239.40 145.00,240.98 C145.00,242.67 144.35,243.00 141.00,243.00 C138.33,243.00 136.33,242.33 135.00,241.00 ZM 148.00 232.50 L 148.00 222.00 L 150.50 222.00 C152.87,222.00 153.00,222.29 153.00,227.69 L 153.00 233.37 L 155.80 230.69 C157.35,229.21 159.68,228.00 160.99,228.00 L 163.37 228.00 L 160.69 230.80 C159.21,232.35 158.00,233.97 158.00,234.41 C158.00,234.85 159.39,236.96 161.08,239.11 L 164.17 243.00 L 161.30 243.00 C159.17,243.00 157.97,242.22 156.65,239.98 C154.65,236.61 153.00,236.87 153.00,240.56 C153.00,242.50 152.48,243.00 150.50,243.00 L 148.00 243.00 L 148.00 232.50 ZM 358.00 233.00 L 358.00 223.00 L 363.07 223.00 C365.85,223.00 369.00,223.47 370.07,224.04 C372.17,225.16 372.73,229.87 370.96,231.64 C370.23,232.37 370.39,233.08 371.46,233.96 C373.58,235.72 373.39,238.61 371.00,241.00 C369.48,242.52 367.67,243.00 363.50,243.00 L 358.00 243.00 L 358.00 233.00 ZM 367.08 239.00 C367.59,239.00 368.00,238.10 368.00,237.00 C368.00,235.44 367.33,235.00 365.00,235.00 C362.76,235.00 362.00,235.46 362.00,236.83 C362.00,239.20 363.04,240.20 364.78,239.53 C365.54,239.24 366.58,239.00 367.08,239.00 ZM 367.50 229.00 C367.50,228.11 366.39,227.37 364.75,227.18 C362.51,226.93 362.00,227.26 362.00,229.00 C362.00,230.74 362.51,231.07 364.75,230.82 C366.39,230.63 367.50,229.89 367.50,229.00 ZM 377.07 240.37 C374.73,237.39 374.47,234.88 376.15,231.68 C377.74,228.67 378.94,228.03 383.10,228.02 C387.58,228.00 390.00,230.48 390.00,235.11 C390.00,240.34 387.65,243.00 383.02,243.00 C380.03,243.00 378.67,242.40 377.07,240.37 ZM 385.29 237.90 C385.84,237.03 385.99,235.09 385.61,233.59 C385.09,231.50 384.41,230.94 382.71,231.19 C380.43,231.51 379.21,235.49 380.42,238.66 C381.13,240.49 383.93,240.06 385.29,237.90 ZM 392.00 242.40 C392.00,242.08 392.98,240.43 394.18,238.75 L 396.36 235.68 L 394.15 231.84 L 391.94 228.00 L 394.43 228.00 C395.99,228.00 397.38,228.84 398.12,230.22 L 399.30 232.43 L 400.77 230.22 C401.58,229.00 403.28,228.00 404.54,228.00 L 406.83 228.00 L 404.73 231.84 L 402.63 235.67 L 404.82 238.74 C407.55,242.58 407.54,243.00 404.74,243.00 C403.50,243.00 401.86,242.01 401.11,240.80 L 399.74 238.61 L 397.96 240.80 C396.37,242.76 392.00,243.94 392.00,242.40 ZM 76.75 133.43 C76.34,133.01 76.01,121.60 76.02,108.08 C76.04,86.10 76.24,83.06 77.94,79.32 C81.16,72.23 82.22,72.00 112.18,72.00 L 138.45 72.00 L 133.22 75.45 C130.34,77.35 125.82,80.72 123.17,82.95 L 118.37 87.00 L 106.27 87.00 C99.61,87.00 93.45,87.27 92.58,87.61 C91.24,88.12 91.00,90.36 91.00,102.14 L 91.00 116.07 L 86.25 122.36 C83.64,125.83 80.60,129.90 79.50,131.42 C78.40,132.94 77.16,133.84 76.75,133.43 ZM 423.88 130.76 C422.63,128.97 419.67,125.20 417.31,122.39 L 413.00 117.28 L 413.00 102.77 L 413.00 88.25 L 409.88 87.62 C408.16,87.28 401.93,87.00 396.03,87.00 C385.93,87.00 385.14,86.85 382.41,84.42 C380.81,83.00 376.59,79.60 373.04,76.87 L 366.57 71.90 L 392.71 72.20 L 418.84 72.50 L 421.52 75.00 C426.64,79.79 426.85,80.98 427.32,107.85 C427.57,121.70 427.40,133.25 426.96,133.52 C426.52,133.80 425.13,132.56 423.88,130.76 Z" fill="rgba(156,237,228,1)"/>
</g>
</svg>